<mxfile host="app.diagrams.net" modified="2022-12-10T13:23:52.345Z" agent="5.0 (Windows NT 10.0; Win64; x64) AppleWebKit/537.36 (KHTML, like Gecko) Chrome/108.0.0.0 Safari/537.36" etag="JVkyT0v8xM7UP4HYucaJ" version="20.6.2" type="github">
  <diagram id="tUHtiKDfzgEZTVPMA67a" name="Strona-1">
    <mxGraphModel dx="1963" dy="927" grid="1" gridSize="10" guides="1" tooltips="1" connect="1" arrows="1" fold="1" page="1" pageScale="1" pageWidth="827" pageHeight="1169" math="0" shadow="0">
      <root>
        <mxCell id="0" />
        <mxCell id="1" parent="0" />
        <mxCell id="e89EQoEDFY6EmZiCrGHN-26" style="edgeStyle=orthogonalEdgeStyle;rounded=0;orthogonalLoop=1;jettySize=auto;html=1;exitX=0;exitY=0.5;exitDx=0;exitDy=0;entryX=1;entryY=0.5;entryDx=0;entryDy=0;" edge="1" parent="1" source="e89EQoEDFY6EmZiCrGHN-5" target="e89EQoEDFY6EmZiCrGHN-19">
          <mxGeometry relative="1" as="geometry" />
        </mxCell>
        <mxCell id="e89EQoEDFY6EmZiCrGHN-27" style="edgeStyle=orthogonalEdgeStyle;rounded=0;orthogonalLoop=1;jettySize=auto;html=1;exitX=0.25;exitY=1;exitDx=0;exitDy=0;entryX=0.435;entryY=0;entryDx=0;entryDy=0;entryPerimeter=0;" edge="1" parent="1" source="e89EQoEDFY6EmZiCrGHN-5" target="e89EQoEDFY6EmZiCrGHN-6">
          <mxGeometry relative="1" as="geometry" />
        </mxCell>
        <mxCell id="e89EQoEDFY6EmZiCrGHN-28" style="edgeStyle=orthogonalEdgeStyle;rounded=0;orthogonalLoop=1;jettySize=auto;html=1;exitX=0.75;exitY=1;exitDx=0;exitDy=0;entryX=0;entryY=0.5;entryDx=0;entryDy=0;" edge="1" parent="1" source="e89EQoEDFY6EmZiCrGHN-5" target="e89EQoEDFY6EmZiCrGHN-11">
          <mxGeometry relative="1" as="geometry" />
        </mxCell>
        <mxCell id="e89EQoEDFY6EmZiCrGHN-29" style="edgeStyle=orthogonalEdgeStyle;rounded=0;orthogonalLoop=1;jettySize=auto;html=1;exitX=1;exitY=0.5;exitDx=0;exitDy=0;entryX=0;entryY=0.5;entryDx=0;entryDy=0;" edge="1" parent="1" source="e89EQoEDFY6EmZiCrGHN-5" target="e89EQoEDFY6EmZiCrGHN-9">
          <mxGeometry relative="1" as="geometry" />
        </mxCell>
        <mxCell id="e89EQoEDFY6EmZiCrGHN-35" style="edgeStyle=orthogonalEdgeStyle;rounded=0;orthogonalLoop=1;jettySize=auto;html=1;exitX=0.5;exitY=0;exitDx=0;exitDy=0;entryX=0;entryY=0.5;entryDx=0;entryDy=0;" edge="1" parent="1" source="e89EQoEDFY6EmZiCrGHN-5" target="e89EQoEDFY6EmZiCrGHN-10">
          <mxGeometry relative="1" as="geometry" />
        </mxCell>
        <mxCell id="e89EQoEDFY6EmZiCrGHN-5" value="Kino" style="html=1;" vertex="1" parent="1">
          <mxGeometry x="-110" y="480" width="110" height="50" as="geometry" />
        </mxCell>
        <mxCell id="e89EQoEDFY6EmZiCrGHN-6" value="Bramki wejsciowe" style="html=1;" vertex="1" parent="1">
          <mxGeometry x="-130" y="630" width="110" height="50" as="geometry" />
        </mxCell>
        <mxCell id="e89EQoEDFY6EmZiCrGHN-31" style="edgeStyle=orthogonalEdgeStyle;rounded=0;orthogonalLoop=1;jettySize=auto;html=1;exitX=1;exitY=0.5;exitDx=0;exitDy=0;entryX=0;entryY=0.25;entryDx=0;entryDy=0;" edge="1" parent="1" source="e89EQoEDFY6EmZiCrGHN-7" target="e89EQoEDFY6EmZiCrGHN-18">
          <mxGeometry relative="1" as="geometry" />
        </mxCell>
        <mxCell id="e89EQoEDFY6EmZiCrGHN-7" value="Kasa biletowa" style="html=1;" vertex="1" parent="1">
          <mxGeometry x="-560" y="510" width="110" height="50" as="geometry" />
        </mxCell>
        <mxCell id="e89EQoEDFY6EmZiCrGHN-32" style="edgeStyle=orthogonalEdgeStyle;rounded=0;orthogonalLoop=1;jettySize=auto;html=1;exitX=1;exitY=0.5;exitDx=0;exitDy=0;entryX=0;entryY=0.5;entryDx=0;entryDy=0;" edge="1" parent="1" source="e89EQoEDFY6EmZiCrGHN-8" target="e89EQoEDFY6EmZiCrGHN-18">
          <mxGeometry relative="1" as="geometry">
            <Array as="points">
              <mxPoint x="-410" y="615" />
              <mxPoint x="-410" y="660" />
            </Array>
          </mxGeometry>
        </mxCell>
        <mxCell id="e89EQoEDFY6EmZiCrGHN-8" value="Biletomat" style="html=1;" vertex="1" parent="1">
          <mxGeometry x="-560" y="590" width="110" height="50" as="geometry" />
        </mxCell>
        <mxCell id="e89EQoEDFY6EmZiCrGHN-9" value="Sale kinowe" style="html=1;" vertex="1" parent="1">
          <mxGeometry x="100" y="480" width="110" height="50" as="geometry" />
        </mxCell>
        <mxCell id="e89EQoEDFY6EmZiCrGHN-10" value="Telebim" style="html=1;" vertex="1" parent="1">
          <mxGeometry x="40" y="340" width="110" height="50" as="geometry" />
        </mxCell>
        <mxCell id="e89EQoEDFY6EmZiCrGHN-11" value="Monitoring" style="html=1;" vertex="1" parent="1">
          <mxGeometry y="559" width="110" height="50" as="geometry" />
        </mxCell>
        <mxCell id="e89EQoEDFY6EmZiCrGHN-15" value="Sala VIP" style="html=1;" vertex="1" parent="1">
          <mxGeometry x="240" y="510" width="110" height="50" as="geometry" />
        </mxCell>
        <mxCell id="e89EQoEDFY6EmZiCrGHN-16" value="Sala standardowa" style="html=1;" vertex="1" parent="1">
          <mxGeometry x="240" y="450" width="110" height="50" as="geometry" />
        </mxCell>
        <mxCell id="e89EQoEDFY6EmZiCrGHN-17" value="Film" style="html=1;" vertex="1" parent="1">
          <mxGeometry x="-90" y="230" width="110" height="50" as="geometry" />
        </mxCell>
        <mxCell id="e89EQoEDFY6EmZiCrGHN-30" style="edgeStyle=orthogonalEdgeStyle;rounded=0;orthogonalLoop=1;jettySize=auto;html=1;exitX=1;exitY=0.5;exitDx=0;exitDy=0;" edge="1" parent="1" source="e89EQoEDFY6EmZiCrGHN-18" target="e89EQoEDFY6EmZiCrGHN-6">
          <mxGeometry relative="1" as="geometry" />
        </mxCell>
        <mxCell id="e89EQoEDFY6EmZiCrGHN-18" value="Bilet" style="html=1;" vertex="1" parent="1">
          <mxGeometry x="-330" y="630" width="110" height="60" as="geometry" />
        </mxCell>
        <mxCell id="e89EQoEDFY6EmZiCrGHN-19" value="Buffet" style="html=1;" vertex="1" parent="1">
          <mxGeometry x="-310" y="480" width="110" height="50" as="geometry" />
        </mxCell>
        <mxCell id="e89EQoEDFY6EmZiCrGHN-20" value="Serwer" style="html=1;" vertex="1" parent="1">
          <mxGeometry x="-670" y="300" width="110" height="50" as="geometry" />
        </mxCell>
        <mxCell id="e89EQoEDFY6EmZiCrGHN-21" value="SieÄ‡ kin" style="html=1;" vertex="1" parent="1">
          <mxGeometry x="-468" y="190" width="110" height="50" as="geometry" />
        </mxCell>
        <mxCell id="e89EQoEDFY6EmZiCrGHN-33" style="edgeStyle=orthogonalEdgeStyle;rounded=0;orthogonalLoop=1;jettySize=auto;html=1;entryX=-0.005;entryY=0.619;entryDx=0;entryDy=0;entryPerimeter=0;" edge="1" parent="1" source="e89EQoEDFY6EmZiCrGHN-22" target="e89EQoEDFY6EmZiCrGHN-18">
          <mxGeometry relative="1" as="geometry" />
        </mxCell>
        <mxCell id="e89EQoEDFY6EmZiCrGHN-22" value="Strona internetowa" style="html=1;" vertex="1" parent="1">
          <mxGeometry x="-560" y="670" width="110" height="50" as="geometry" />
        </mxCell>
        <mxCell id="e89EQoEDFY6EmZiCrGHN-34" style="edgeStyle=orthogonalEdgeStyle;rounded=0;orthogonalLoop=1;jettySize=auto;html=1;" edge="1" parent="1" source="e89EQoEDFY6EmZiCrGHN-23">
          <mxGeometry relative="1" as="geometry">
            <mxPoint x="-330" y="680" as="targetPoint" />
            <Array as="points">
              <mxPoint x="-360" y="775" />
              <mxPoint x="-360" y="680" />
              <mxPoint x="-330" y="680" />
            </Array>
          </mxGeometry>
        </mxCell>
        <mxCell id="e89EQoEDFY6EmZiCrGHN-23" value="Aplikacja" style="html=1;" vertex="1" parent="1">
          <mxGeometry x="-560" y="750" width="110" height="50" as="geometry" />
        </mxCell>
        <mxCell id="e89EQoEDFY6EmZiCrGHN-41" value="" style="endArrow=open;endFill=1;endSize=12;html=1;rounded=0;" edge="1" parent="1">
          <mxGeometry width="160" relative="1" as="geometry">
            <mxPoint x="-280" y="490" as="sourcePoint" />
            <mxPoint x="-120" y="490" as="targetPoint" />
          </mxGeometry>
        </mxCell>
        <mxCell id="e89EQoEDFY6EmZiCrGHN-43" value="" style="endArrow=open;endFill=1;endSize=12;html=1;rounded=0;entryX=0.5;entryY=0;entryDx=0;entryDy=0;exitX=0;exitY=0.5;exitDx=0;exitDy=0;" edge="1" parent="1" source="e89EQoEDFY6EmZiCrGHN-21" target="e89EQoEDFY6EmZiCrGHN-20">
          <mxGeometry width="160" relative="1" as="geometry">
            <mxPoint x="-440" y="260" as="sourcePoint" />
            <mxPoint x="-280" y="260" as="targetPoint" />
          </mxGeometry>
        </mxCell>
        <mxCell id="e89EQoEDFY6EmZiCrGHN-44" value="" style="endArrow=open;endFill=1;endSize=12;html=1;rounded=0;entryX=0.75;entryY=1;entryDx=0;entryDy=0;exitX=0;exitY=0.25;exitDx=0;exitDy=0;" edge="1" parent="1" source="e89EQoEDFY6EmZiCrGHN-7" target="e89EQoEDFY6EmZiCrGHN-20">
          <mxGeometry width="160" relative="1" as="geometry">
            <mxPoint x="-640" y="470" as="sourcePoint" />
            <mxPoint x="-480" y="470" as="targetPoint" />
          </mxGeometry>
        </mxCell>
        <mxCell id="e89EQoEDFY6EmZiCrGHN-45" value="" style="endArrow=open;endFill=1;endSize=12;html=1;rounded=0;entryX=0.75;entryY=1;entryDx=0;entryDy=0;exitX=0;exitY=0.5;exitDx=0;exitDy=0;" edge="1" parent="1" source="e89EQoEDFY6EmZiCrGHN-8">
          <mxGeometry width="160" relative="1" as="geometry">
            <mxPoint x="-592.5" y="522.5" as="sourcePoint" />
            <mxPoint x="-620" y="350" as="targetPoint" />
          </mxGeometry>
        </mxCell>
        <mxCell id="e89EQoEDFY6EmZiCrGHN-46" value="" style="endArrow=open;endFill=1;endSize=12;html=1;rounded=0;entryX=0.25;entryY=1;entryDx=0;entryDy=0;exitX=0;exitY=0.5;exitDx=0;exitDy=0;" edge="1" parent="1" source="e89EQoEDFY6EmZiCrGHN-22" target="e89EQoEDFY6EmZiCrGHN-20">
          <mxGeometry width="160" relative="1" as="geometry">
            <mxPoint x="-632.5" y="572.5" as="sourcePoint" />
            <mxPoint x="-660" y="400" as="targetPoint" />
          </mxGeometry>
        </mxCell>
        <mxCell id="e89EQoEDFY6EmZiCrGHN-47" value="" style="endArrow=open;endFill=1;endSize=12;html=1;rounded=0;entryX=0.056;entryY=1.06;entryDx=0;entryDy=0;exitX=0;exitY=0.25;exitDx=0;exitDy=0;entryPerimeter=0;" edge="1" parent="1" source="e89EQoEDFY6EmZiCrGHN-23" target="e89EQoEDFY6EmZiCrGHN-20">
          <mxGeometry width="160" relative="1" as="geometry">
            <mxPoint x="-530" y="552.5" as="sourcePoint" />
            <mxPoint x="-557.5" y="380" as="targetPoint" />
          </mxGeometry>
        </mxCell>
      </root>
    </mxGraphModel>
  </diagram>
</mxfile>
